# xmcd
#
# Track frame offsets:
#	150
#	19035
#	31361
#	46798
#	60066
#	75801
#	91099
#	103336
#	117841
#	134848
#	151541
#	169542
#	184096
#
# Disc length: 2672 seconds
#
# Revision: 2
# Processed by: cddbd v1.5.2PL0 Copyright (c) Steve Scherf et al.
# Submitted via: EZCDAudioConverter 7.1.4.1
#
DISCID=8b0a6e0d
DTITLE=Kevin Fowler - Bring It On
DYEAR=2007
DGENRE=Country
TTITLE0=Long Line Of Loosers
TTITLE1=Feels Good Don't It
TTITLE2=Ain't Dead Yet
TTITLE3=Me And The Boys
TTITLE4=I Pulled A Hank Last Night
TTITLE5=What's Your Point
TTITLE6=Bring It On
TTITLE7=Cheaper To Keep Her
TTITLE8=Slow Down
TTITLE9=Now You're Talking
TTITLE10=Best Mistake I Ever Made
TTITLE11=Let's Start Livin'
TTITLE12=Honky Tonk Junkie
EXTD=
EXTT0=
EXTT1=
EXTT2=
EXTT3=
EXTT4=
EXTT5=
EXTT6=
EXTT7=
EXTT8=
EXTT9=
EXTT10=
EXTT11=
EXTT12=
PLAYORDER=
